<svg width="169" height="38" viewBox="0 0 169 38" fill="none" xmlns="http://www.w3.org/2000/svg">
<path d="M8.84564 14H0.961641V1.238H8.84564V3.254H3.12164V6.638H8.30564V8.6H3.12164V11.984H8.84564V14ZM24.8114 1.238L20.5634 7.628L24.7934 14H22.2014L19.2314 9.338L16.2254 14H13.6874L17.9534 7.61L13.7234 1.238H16.3154L19.2854 5.918L22.2734 1.238H24.8114ZM32.2901 7.106H34.5401C35.2241 7.106 35.7581 6.932 36.1421 6.584C36.5381 6.224 36.7361 5.744 36.7361 5.144C36.7361 4.532 36.5381 4.046 36.1421 3.686C35.7581 3.326 35.2241 3.146 34.5401 3.146H32.2901V7.106ZM34.8641 9.014H32.2901V14H30.1301V1.238H34.8641C36.0761 1.238 37.0541 1.604 37.7981 2.336C38.5541 3.068 38.9321 3.998 38.9321 5.126C38.9321 6.266 38.5541 7.202 37.7981 7.934C37.0541 8.654 36.0761 9.014 34.8641 9.014ZM52.443 14H44.433V1.238H46.593V11.948H52.443V14ZM60.1177 4.226C59.2777 5.03 58.8577 6.158 58.8577 7.61C58.8577 9.062 59.2777 10.196 60.1177 11.012C60.9577 11.816 61.9597 12.218 63.1237 12.218C64.2877 12.218 65.2897 11.816 66.1297 11.012C66.9817 10.196 67.4077 9.062 67.4077 7.61C67.4077 6.158 66.9817 5.03 66.1297 4.226C65.2897 3.41 64.2877 3.002 63.1237 3.002C61.9597 3.002 60.9577 3.41 60.1177 4.226ZM57.5617 11.174C56.9497 10.142 56.6437 8.954 56.6437 7.61C56.6437 6.266 56.9497 5.084 57.5617 4.064C58.1857 3.032 58.9837 2.258 59.9557 1.742C60.9277 1.226 61.9837 0.967999 63.1237 0.967999C64.2637 0.967999 65.3197 1.226 66.2917 1.742C67.2637 2.258 68.0617 3.032 68.6857 4.064C69.3097 5.084 69.6217 6.266 69.6217 7.61C69.6217 8.954 69.3097 10.142 68.6857 11.174C68.0617 12.206 67.2637 12.98 66.2917 13.496C65.3197 14.012 64.2637 14.27 63.1237 14.27C61.9837 14.27 60.9277 14.012 59.9557 13.496C58.9837 12.98 58.1857 12.206 57.5617 11.174ZM81.856 14L79.174 8.96H77.59V14H75.412V1.238H80.308C81.508 1.238 82.474 1.61 83.206 2.354C83.938 3.086 84.304 4.004 84.304 5.108C84.304 6.02 84.046 6.8 83.53 7.448C83.014 8.096 82.312 8.528 81.424 8.744L84.304 14H81.856ZM77.59 7.052H79.912C80.572 7.052 81.1 6.878 81.496 6.53C81.904 6.17 82.108 5.696 82.108 5.108C82.108 4.508 81.904 4.034 81.496 3.686C81.1 3.326 80.572 3.146 79.912 3.146H77.59V7.052ZM98.0033 14H90.1193V1.238H98.0033V3.254H92.2793V6.638H97.4633V8.6H92.2793V11.984H98.0033V14ZM3.12164 35.02H5.38964C6.56564 35.02 7.53164 34.648 8.28764 33.904C9.05564 33.148 9.43964 32.062 9.43964 30.646C9.43964 29.218 9.06164 28.126 8.30564 27.37C7.54964 26.602 6.58364 26.218 5.40764 26.218H3.12164V35.02ZM5.46164 37H0.961641V24.238H5.47964C7.27964 24.238 8.76164 24.808 9.92564 25.948C11.1016 27.088 11.6896 28.654 11.6896 30.646C11.6896 32.626 11.1016 34.18 9.92564 35.308C8.74964 36.436 7.26164 37 5.46164 37ZM25.3459 37H17.4619V24.238H25.3459V26.254H19.6219V29.638H24.8059V31.6H19.6219V34.984H25.3459V37ZM39.8364 27.226L37.8924 27.838C37.8084 27.346 37.5624 26.896 37.1544 26.488C36.7464 26.08 36.1584 25.876 35.3904 25.876C34.7544 25.876 34.2264 26.056 33.8064 26.416C33.3984 26.776 33.1944 27.208 33.1944 27.712C33.1944 28.588 33.6924 29.134 34.6884 29.35L36.5244 29.728C37.6284 29.944 38.4804 30.382 39.0804 31.042C39.6804 31.702 39.9804 32.488 39.9804 33.4C39.9804 34.456 39.5724 35.368 38.7564 36.136C37.9524 36.892 36.8544 37.27 35.4624 37.27C33.9624 37.27 32.7924 36.88 31.9524 36.1C31.1124 35.308 30.6384 34.39 30.5304 33.346L32.5464 32.77C32.6184 33.49 32.9064 34.096 33.4104 34.588C33.9144 35.08 34.5984 35.326 35.4624 35.326C36.2064 35.326 36.7764 35.164 37.1724 34.84C37.5804 34.504 37.7844 34.078 37.7844 33.562C37.7844 33.142 37.6344 32.782 37.3344 32.482C37.0344 32.17 36.6144 31.954 36.0744 31.834L34.2744 31.456C33.2784 31.252 32.4864 30.838 31.8984 30.214C31.3224 29.59 31.0344 28.81 31.0344 27.874C31.0344 26.806 31.4604 25.888 32.3124 25.12C33.1644 24.352 34.1844 23.968 35.3724 23.968C36.7284 23.968 37.7664 24.298 38.4864 24.958C39.2064 25.606 39.6564 26.362 39.8364 27.226ZM54.8431 26.272H50.6851V37H48.5251V26.272H44.3851V24.238H54.8431V26.272ZM62.3207 37H60.1247V24.238H62.3207V37ZM79.6006 37H77.3506L71.0506 27.334V37H68.8905V24.238H71.6446L77.4405 33.292V24.238H79.6006V37ZM94.8942 37L93.6882 33.796H88.2882L87.1002 37H84.8142L89.7822 24.238H92.2842L97.2522 37H94.8942ZM90.9882 26.578L89.0442 31.798H92.9322L90.9882 26.578ZM110.455 26.272H106.297V37H104.137V26.272H99.9974V24.238H110.455V26.272ZM117.933 37H115.737V24.238H117.933V37ZM127.203 27.226C126.363 28.03 125.943 29.158 125.943 30.61C125.943 32.062 126.363 33.196 127.203 34.012C128.043 34.816 129.045 35.218 130.209 35.218C131.373 35.218 132.375 34.816 133.215 34.012C134.067 33.196 134.493 32.062 134.493 30.61C134.493 29.158 134.067 28.03 133.215 27.226C132.375 26.41 131.373 26.002 130.209 26.002C129.045 26.002 128.043 26.41 127.203 27.226ZM124.647 34.174C124.035 33.142 123.729 31.954 123.729 30.61C123.729 29.266 124.035 28.084 124.647 27.064C125.271 26.032 126.069 25.258 127.041 24.742C128.013 24.226 129.069 23.968 130.209 23.968C131.349 23.968 132.405 24.226 133.377 24.742C134.349 25.258 135.147 26.032 135.771 27.064C136.395 28.084 136.707 29.266 136.707 30.61C136.707 31.954 136.395 33.142 135.771 34.174C135.147 35.206 134.349 35.98 133.377 36.496C132.405 37.012 131.349 37.27 130.209 37.27C129.069 37.27 128.013 37.012 127.041 36.496C126.069 35.98 125.271 35.206 124.647 34.174ZM153.207 37H150.957L144.657 27.334V37H142.497V24.238H145.251L151.047 33.292V24.238H153.207V37ZM168.159 27.226L166.215 27.838C166.131 27.346 165.885 26.896 165.477 26.488C165.069 26.08 164.481 25.876 163.713 25.876C163.077 25.876 162.549 26.056 162.129 26.416C161.721 26.776 161.517 27.208 161.517 27.712C161.517 28.588 162.015 29.134 163.011 29.35L164.847 29.728C165.951 29.944 166.803 30.382 167.403 31.042C168.003 31.702 168.303 32.488 168.303 33.4C168.303 34.456 167.895 35.368 167.079 36.136C166.275 36.892 165.177 37.27 163.785 37.27C162.285 37.27 161.115 36.88 160.275 36.1C159.435 35.308 158.961 34.39 158.853 33.346L160.869 32.77C160.941 33.49 161.229 34.096 161.733 34.588C162.237 35.08 162.921 35.326 163.785 35.326C164.529 35.326 165.099 35.164 165.495 34.84C165.903 34.504 166.107 34.078 166.107 33.562C166.107 33.142 165.957 32.782 165.657 32.482C165.357 32.17 164.937 31.954 164.397 31.834L162.597 31.456C161.601 31.252 160.809 30.838 160.221 30.214C159.645 29.59 159.357 28.81 159.357 27.874C159.357 26.806 159.783 25.888 160.635 25.12C161.487 24.352 162.507 23.968 163.695 23.968C165.051 23.968 166.089 24.298 166.809 24.958C167.529 25.606 167.979 26.362 168.159 27.226Z" fill="white"/>
</svg>
